<svg xmlns="http://www.w3.org/2000/svg" aria-hidden="true" overflow="hidden" style="width:0;height:0;position:absolute"><defs><symbol id="icon-close" viewBox="0 0 32 32"><path d="m17.253 16 7.369-7.369a.885.885 0 0 0-.047-1.206.893.893 0 0 0-1.207-.047l-7.369 7.369L8.63 7.369a.892.892 0 0 0-1.262 1.262L14.746 16l-7.378 7.369a.891.891 0 0 0-.05 1.304.906.906 0 0 0 .663.26.88.88 0 0 0 .641-.31L16 17.254l7.369 7.369a.886.886 0 0 0 1.207-.047.893.893 0 0 0 .047-1.207L17.254 16z"/></symbol><symbol id="icon-menu" viewBox="0 0 32 32"><path d="M26.733 14.667H5.266c-.7 0-1.267.567-1.267 1.267v.133c0 .7.567 1.267 1.267 1.267h21.467c.7 0 1.267-.567 1.267-1.267v-.133c0-.7-.567-1.267-1.267-1.267zm0 6.666H5.266c-.7 0-1.267.567-1.267 1.267v.133c0 .7.567 1.267 1.267 1.267h21.467c.7 0 1.267-.567 1.267-1.267V22.6c0-.7-.567-1.267-1.267-1.267zm0-13.333H5.266c-.7 0-1.267.567-1.267 1.267V9.4c0 .7.567 1.267 1.267 1.267h21.467c.7 0 1.267-.567 1.267-1.267v-.133C28 8.567 27.433 8 26.733 8z"/></symbol><symbol id="icon-more" viewBox="0 0 32 32"><path d="M10.586 3.272a2 2 0 0 0 0 2.828l9.9 9.9-9.9 9.9a1.998 1.998 0 0 0 .025 2.804 2.001 2.001 0 0 0 2.804.025l11.314-11.314a2 2 0 0 0 0-2.828L13.415 3.273a2 2 0 0 0-2.828 0z"/></symbol><symbol id="icon-arrow" viewBox="0 0 82 32"><path d="M81.414 17.414a2 2 0 0 0 0-2.828L68.686 1.858a2 2 0 1 0-2.828 2.828L77.172 16 65.858 27.314a2 2 0 1 0 2.828 2.828l12.728-12.728zM0 18h80v-4H0v4z"/></symbol><symbol id="icon-facebook" viewBox="0 0 32 32"><path fill="var(--color2, #f8d24e)" d="M16 32c8.837 0 16-7.163 16-16S24.837 0 16 0 0 7.163 0 16s7.163 16 16 16z"/><path d="M20.446 15.982h-2.61v9.619h-3.955v-9.619H12v-3.38h1.881v-2.187c0-1.564.739-4.014 3.99-4.014l2.929.012v3.281h-2.125c-.349 0-.839.175-.839.921v1.989h2.955l-.346 3.377z"/></symbol><symbol id="icon-github" viewBox="0 0 32 32"><path fill="var(--color2, #f8d24e)" d="M32 16c0 8.837-7.163 16-16 16S0 24.837 0 16 7.163 0 16 0s16 7.163 16 16z"/><path d="M16 6.588c-5.169 0-9.412 4.242-9.412 9.412 0 4.411 3.095 8.419 7.206 9.412v-3.114a2.307 2.307 0 0 1-1.197-.03c-.556-.164-1.008-.535-1.344-1.1-.214-.361-.593-.752-.988-.723l-.097-1.099c.855-.073 1.595.521 2.034 1.259.195.328.419.52.708.605.278.082.578.043.926-.08.088-.698.407-.959.648-1.326v-.001c-2.451-.366-3.428-1.666-3.816-2.693-.514-1.363-.238-3.066.671-4.142.018-.021.05-.076.037-.114-.417-1.258.091-2.299.11-2.41.481.142.559-.143 2.089.786l.264.159c.111.066.076.028.186.02A8.031 8.031 0 0 1 16 11.131a8.016 8.016 0 0 1 2.002.285l.086.009c-.007-.001.023-.005.075-.036 1.911-1.157 1.842-.779 2.355-.946.019.111.519 1.169.107 2.411-.056.171 1.657 1.739.708 4.256-.388 1.027-1.365 2.328-3.816 2.693v.001c.314.479.692.734.69 1.722v3.887c4.111-.993 7.206-5 7.206-9.412 0-5.169-4.242-9.412-9.412-9.412z"/></symbol><symbol id="icon-telegram" viewBox="0 0 32 32"><path fill="var(--color2, #f8d24e)" d="M32 16c0 8.837-7.163 16-16 16S0 24.837 0 16 7.163 0 16 0s16 7.163 16 16z"/><path d="m12.869 18.375-.318 4.169c.454 0 .651-.182.887-.401l2.13-1.9 4.415 3.017c.81.421 1.38.199 1.598-.695l2.898-12.672.001-.001c.257-1.117-.433-1.554-1.222-1.28L6.226 14.698c-1.162.421-1.145 1.026-.198 1.3l4.354 1.264 10.115-5.907c.476-.294.909-.131.553.163l-8.182 6.857z"/></symbol><symbol id="icon-instagram" viewBox="0 0 512 512"><path d="M256 46.1c68.4 0 76.5.3 103.4 1.5 25 1.1 38.5 5.3 47.5 8.8 11.9 4.6 20.5 10.2 29.4 19.1 9 9 14.5 17.5 19.2 29.4 3.5 9 7.7 22.6 8.8 47.5 1.2 27 1.5 35.1 1.5 103.4s-.3 76.5-1.5 103.4c-1.1 25-5.3 38.5-8.8 47.5-4.6 11.9-10.2 20.5-19.1 29.4-9 9-17.5 14.5-29.4 19.2-9 3.5-22.6 7.7-47.5 8.8-27 1.2-35.1 1.5-103.4 1.5s-76.5-.3-103.4-1.5c-25-1.1-38.5-5.3-47.5-8.8-11.9-4.6-20.5-10.2-29.4-19.1-9-9-14.5-17.5-19.2-29.4-3.5-9-7.7-22.6-8.8-47.5-1.2-27-1.5-35.1-1.5-103.4s.3-76.5 1.5-103.4c1.1-25 5.3-38.5 8.8-47.5 4.6-11.9 10.2-20.5 19.1-29.4 9-9 17.5-14.5 29.4-19.2 9-3.5 22.6-7.7 47.5-8.8 26.9-1.2 35-1.5 103.4-1.5zM256 0c-69.5 0-78.2.3-105.5 1.5-27.2 1.2-45.9 5.6-62.1 11.9C71.5 20 57.2 28.7 43 43 28.7 57.2 20 71.5 13.4 88.3c-6.3 16.3-10.7 34.9-11.9 62.1C.3 177.8 0 186.5 0 256s.3 78.2 1.5 105.5c1.2 27.2 5.6 45.9 11.9 62.1C20 440.5 28.7 454.8 43 469c14.2 14.2 28.5 23 45.3 29.5 16.3 6.3 34.9 10.7 62.1 11.9 27.3 1.2 36 1.5 105.5 1.5s78.2-.3 105.5-1.5c27.2-1.2 45.9-5.6 62.1-11.9 16.8-6.5 31.1-15.3 45.3-29.5s23-28.5 29.5-45.3c6.3-16.3 10.7-34.9 11.9-62.1 1.2-27.3 1.5-36 1.5-105.5s-.3-78.2-1.5-105.5c-1.2-27.2-5.6-45.9-11.9-62.1-6.3-17-15-31.3-29.3-45.5-14.2-14.2-28.5-23-45.3-29.5-16.3-6.3-34.9-10.7-62.1-11.9C334.2.3 325.5 0 256 0z"/><path d="M256 124.5c-72.6 0-131.5 58.9-131.5 131.5S183.4 387.5 256 387.5 387.5 328.6 387.5 256 328.6 124.5 256 124.5zm0 216.8c-47.1 0-85.3-38.2-85.3-85.3s38.2-85.3 85.3-85.3c47.1 0 85.3 38.2 85.3 85.3s-38.2 85.3-85.3 85.3zM423.4 119.3c0 16.955-13.745 30.7-30.7 30.7S362 136.255 362 119.3s13.745-30.7 30.7-30.7 30.7 13.745 30.7 30.7z"/></symbol><symbol id="icon" viewBox="0 0 100 100"><path d="m44.469 22.281.023 5.727H45.977l.039-3.899.039-3.89.617 3.734c.344 2.063.648 3.82.68 3.922.062.172.093.18.867.156l.797-.023.062-.274c.031-.148.29-1.859.57-3.789.29-1.937.555-3.586.586-3.672.04-.085.07 1.586.07 3.797l.008 3.961.82.008.821.016V16.563h-1.21c-.907 0-1.227.023-1.25.093-.024.055-.282 1.75-.587 3.774-.5 3.343-.672 4.351-.695 4.023-.023-.305-1.258-7.75-1.297-7.812-.031-.047-.578-.078-1.258-.078h-1.203l.016 5.718ZM54.664 16.617c-.023.04-.203 1.078-.398 2.328-.196 1.242-.602 3.774-.899 5.625-.297 1.844-.523 3.383-.5 3.414.016.04.367.063.766.063.844 0 .844 0 .93-.703.03-.235.093-.649.132-.922l.086-.492 1.102.023 1.101.024.133.921c.07.5.157.97.18 1.032.055.156 1.672.172 1.734.015.016-.054-.367-2.625-.867-5.71-.492-3.094-.898-5.633-.898-5.65 0-.054-2.57-.023-2.602.032Zm1.383 3.203c.078.555.258 1.774.406 2.72a79.8 79.8 0 0 1 .266 1.773c0 .039-.39.062-.86.062h-.867l.047-.258c.063-.351.39-2.578.602-4.062.101-.672.195-1.227.218-1.227.024 0 .11.445.188.992ZM50.313 30.148c-.727.196-1.141.438-1.641.938-.797.805-1.156 1.805-1.016 2.797.125.906.266 1.234.782 1.883.171.226.296.406.273.406-.023 0-.758-.32-1.625-.711-.867-.398-1.844-.828-2.164-.969-.32-.14-1.18-.523-1.906-.851-2.078-.938-2.078-.938-3.196 1.554-1.984 4.414-1.968 4.36-1.742 4.797.117.219.14.227 3.094 1.578 1.32.602 8.25 3.735 9.062 4.094.735.328 3.899 1.758 7.344 3.32.969.438 2.477 1.118 3.352 1.508l1.601.719-12.578.039c-13.273.04-12.805.023-13 .39-.11.204-.11 17.766 0 17.977.219.406-.555.383 14.352.383 10.89 0 13.851-.023 14.008-.102.109-.054.257-.218.328-.367.132-.258.14-.828.14-8.617v-8.336l.281.117c.813.336.977.164 2.032-2.187.46-1.031 1.015-2.266 1.226-2.735.524-1.171.61-1.421.555-1.632-.117-.477-.36-.618-3.844-2.172l-3.383-1.508.61-.102c1.844-.304 3.148-1.765 3.148-3.53 0-1.196-.695-2.384-1.758-3-.632-.376-1.28-.462-3.125-.415-1.468.04-1.742.07-2.617.281-.539.125-1.18.305-1.422.39-.25.087-.46.134-.476.102a2.56 2.56 0 0 1-.133-.367c-.055-.172-.32-.75-.602-1.289-.921-1.765-2.523-3.664-3.492-4.14-.828-.407-1.593-.485-2.468-.243Zm1.609 1.688c.992.414 3.36 3.797 3.523 5.039l.047.336-.304-.055c-.461-.086-1.555-.46-2.336-.812-2.68-1.188-2.86-1.282-3.133-1.657-.328-.453-.516-1.109-.43-1.484.203-.836.625-1.297 1.375-1.492.297-.078.922-.016 1.258.125Zm-8.594 3.781c.86.383 2.313 1.031 3.234 1.453.922.414 2.368 1.07 3.204 1.446 1.968.882 1.953.875 1.953.937 0 .024-.305.719-.672 1.531-.367.813-.774 1.735-.914 2.04-.133.312-.281.57-.336.57-.047 0-.984-.399-2.07-.89-3.407-1.524-6.485-2.915-7.196-3.235l-.68-.32.415-.922c1.101-2.47 1.484-3.305 1.5-3.305.007 0 .71.312 1.562.695Zm20.14 1.43c.423.101.946.664 1.102 1.18.149.5.149.632-.007 1.156a1.796 1.796 0 0 1-1.196 1.195c-.703.211-.656.219-2.976-.789-1.633-.71-2.657-1.281-3.032-1.68l-.18-.195.18-.117c.54-.352 2.446-.734 4.282-.867.492-.04 1.46.023 1.828.117Zm-7.296 2.21c.219.212.367.4.328.415-.04.008-.477-.164-.969-.399l-.906-.414.578.008h.578l.39.39Zm-1.68 1.345c.477.21 1.094.507 1.383.656l.516.265-.141.313c-.078.172-.406.875-.727 1.562-.32.688-.68 1.47-.796 1.743-.118.273-.258.476-.305.453-.297-.125-2.906-1.32-2.93-1.344-.015-.016.352-.844.813-1.844.46-1 .875-1.922.922-2.039.093-.281.132-.273 1.265.235Zm4.414 1.96c.32.149.922.415 1.328.594 2.602 1.157 7.625 3.438 7.688 3.492.039.032-.211.68-.578 1.493l-.922 2.07c-.164.36-.328.648-.383.648-.047 0-.398-.14-.781-.32-.375-.18-.953-.437-1.274-.578-1.382-.594-7.78-3.492-7.82-3.54-.031-.03.133-.46.36-.952.218-.492.648-1.438.937-2.094.61-1.352.469-1.266 1.445-.813ZM47.891 60.626v7.734h-9.375V52.891h9.375v7.734Zm16.172 0v7.734h-9.376V52.891h9.376v7.734Zm-11.094 0v7.656h-3.36V52.97h3.36v7.656ZM32.367 30.469c-1.11.226-2.008 1.226-2.226 2.484-.078.469-.07.61.047 1.055.296 1.094 1.585 2.883 3.21 4.469.657.64.813.742 1.157.742.297 0 .36-.047 1.054-.766 1.477-1.523 2.524-2.883 3.016-3.922.203-.445.234-.593.242-1.21 0-.633-.023-.758-.25-1.227-.695-1.477-2.328-2.07-3.758-1.375l-.343.164-.328-.172c-.344-.164-1.024-.328-1.329-.313-.086.008-.312.04-.492.07Zm1.07 1.883c.149.093.32.242.383.32.055.086.22.203.36.266.343.14.672.039 1.093-.352.383-.352.618-.438 1.008-.367.664.125 1.102.883.875 1.523-.101.297-.836 1.438-1.18 1.844-.109.125-.468.555-.804.953-.328.398-.625.719-.656.719-.078.008-1.227-1.29-1.75-1.985-.625-.82-.97-1.468-.97-1.836 0-.398.298-.93.626-1.101.351-.195.68-.188 1.016.016Z"/><path d="M32.883 42.219c-1.25.476-2.04 1.726-1.922 3.008.094 1.086 1.156 2.718 3.023 4.648 1.29 1.328 1.391 1.336 2.57.133 1.4-1.422 2.516-2.914 2.93-3.899.266-.632.32-1.054.203-1.625-.195-.945-.695-1.64-1.5-2.062-.398-.211-.601-.266-1.085-.297-.602-.031-1.235.102-1.586.344-.125.086-.203.07-.547-.102-.328-.172-.524-.21-1.102-.234-.46-.016-.797.015-.984.086Zm1.312 1.586c.149.07.344.226.438.343.187.266.578.414.875.336.11-.023.383-.203.601-.39.516-.438.836-.508 1.29-.266.523.274.78.961.57 1.516-.18.484-1.282 1.968-2.203 2.968l-.422.461-.438-.46c-1.21-1.282-1.96-2.313-2.203-3.032-.195-.562.07-1.218.594-1.476.328-.164.555-.164.898 0ZM39.375 73.04c-.844.272-1.328.905-1.492 1.952-.11.727 0 1.445.328 2.117.195.399.5.758 1.375 1.649.703.726 1.172 1.273 1.273 1.484.188.414.203 1.156.04 1.477-.25.484-1.157.484-1.407 0-.07-.14-.117-.446-.117-.82v-.587h-1.586l.04.82c.03.712.07.876.265 1.266.422.829 1.258 1.25 2.328 1.18 1.414-.094 2.14-.867 2.219-2.367.07-1.352-.203-1.898-1.711-3.438-.586-.601-1.14-1.234-1.227-1.406-.328-.648-.289-1.539.086-1.797.094-.062.328-.117.523-.117.524 0 .727.234.766.899l.031.507h1.57l-.046-.617c-.063-1-.461-1.68-1.172-2.055-.266-.14-.484-.171-1.11-.195-.43-.008-.867.008-.976.047ZM50.313 73.063c-.57.156-1.079.656-1.344 1.312-.164.414-.172.54-.203 3.492-.032 3.305.015 3.922.328 4.54.242.468.531.741 1.023.968.328.148.516.18 1.172.18.938-.008 1.352-.172 1.836-.72.578-.663.586-.71.586-4.632v-3.476l-.242-.516c-.266-.563-.664-.938-1.203-1.125-.375-.133-1.524-.148-1.953-.023Zm1.523 1.578c.102.101.203.304.234.445.024.148.04 1.68.024 3.414l-.024 3.156-.265.235c-.235.203-.305.234-.61.195-.414-.047-.617-.219-.726-.594-.086-.305-.11-5.867-.032-6.351.079-.47.336-.688.813-.688.313 0 .438.04.586.188ZM43.125 73.79v.741H44.844v8.907h1.64V74.53h1.72v-1.484H43.124v.742ZM54.844 78.242v5.195h1.64V79.219h.391c.219 0 .516.055.672.118.445.187.523.469.555 2.148.015.797.046 1.563.07 1.696l.039.257h1.648l-.054-.218c-.032-.117-.086-.985-.11-1.93-.047-1.383-.086-1.781-.195-2.047-.14-.328-.594-.805-.758-.805-.047 0 .086-.164.305-.374.562-.532.664-.93.625-2.43-.031-1.063-.047-1.172-.242-1.555-.25-.484-.72-.82-1.313-.945-.219-.047-1.039-.086-1.828-.086h-1.445v5.195Zm2.93-3.523.234.187.023 1c.016.563-.008 1.125-.054 1.281-.11.383-.422.547-1.016.547h-.477V74.531h.532c.437 0 .562.031.757.188ZM60.781 78.242v5.195H65.234v-1.484h-2.812V78.906h2.266v-1.484h-2.266V74.53h2.812v-1.484H60.781v5.195Z"/></symbol><symbol id="icon-tiktok" viewBox="0 0 32 32"><path d="M26.119 8.915a6.396 6.396 0 0 1-5.027-5.66v-.588h-4.593v18.229a3.858 3.858 0 0 1-2.634 3.647 3.86 3.86 0 0 1-4.38-5.884 3.858 3.858 0 0 1 4.325-1.452V12.54a8.443 8.443 0 0 0-8.69 4.558 8.447 8.447 0 0 0-.806 5.089 8.433 8.433 0 0 0 6.621 6.973 8.445 8.445 0 0 0 8.722-3.554 8.438 8.438 0 0 0 1.436-4.709v-9.315a10.91 10.91 0 0 0 6.364 2.035V9.053a6.39 6.39 0 0 1-1.337-.139z"/></symbol><symbol id="icon-call" viewBox="0 0 24 24"><path d="M20.016 15.375q.422 0 .703.281t.281.703v3.469Q21 21 20.016 21q-6.984 0-12-5.016T3 3.984Q3 3 4.172 3h3.469q.422 0 .703.281t.281.703q0 1.828.563 3.516.188.609-.234 1.031l-1.922 1.688q2.156 4.5 6.891 6.797l1.547-1.969q.281-.281.703-.281.234 0 .328.047 1.688.563 3.516.563z"/></symbol><symbol id="icon-accaunt" viewBox="0 0 24 24"><path d="M12 14.016q2.531 0 5.273 1.102t2.742 2.883v2.016H3.984v-2.016q0-1.781 2.742-2.883t5.273-1.102zM12 12q-1.641 0-2.813-1.172T8.015 8.015t1.172-2.836T12 3.984t2.813 1.195 1.172 2.836-1.172 2.813T12 12z"/></symbol><symbol id="icon-basket" viewBox="0 0 24 24"><path d="M7.172 14.766q0 .234.234.234h11.578v2.016h-12q-.797 0-1.383-.609t-.586-1.406q0-.469.234-.938l1.359-2.484-3.609-7.594H.983V2.016h3.281Q5.202 3.985 6.139 6q.234.422 1.078 2.227t1.313 2.789h7.031q3.516-6.375 3.844-7.031l1.734.984-3.844 6.984q-.563 1.031-1.734 1.031H8.108l-.891 1.641zM17.016 18q.797 0 1.383.609t.586 1.406-.586 1.383-1.383.586-1.406-.586-.609-1.383.609-1.406T17.016 18zM6.984 18q.797 0 1.406.609t.609 1.406-.609 1.383-1.406.586-1.383-.586-.586-1.383.586-1.406T6.984 18zm4.032-9V6h-3V3.984h3v-3h1.969v3h3V6h-3v3h-1.969z"/></symbol></defs></svg>