<svg xmlns="http://www.w3.org/2000/svg" aria-hidden="true" overflow="hidden" style="position:absolute;width:0;height:0"><defs>
<symbol id="icon-close" viewBox="0 0 32 32"><path d="m17.253 16 7.369-7.369a.885.885 0 0 0-.047-1.206.893.893 0 0 0-1.207-.047l-7.369 7.369L8.63 7.369a.892.892 0 0 0-1.262 1.262L14.746 16l-7.378 7.369a.891.891 0 0 0-.05 1.304.906.906 0 0 0 .663.26.88.88 0 0 0 .641-.31L16 17.254l7.369 7.369a.886.886 0 0 0 1.207-.047.893.893 0 0 0 .047-1.207L17.254 16z"/></symbol>
<symbol id="icon-menu" viewBox="0 0 32 32"><path d="M26.733 14.667H5.266c-.7 0-1.267.567-1.267 1.267v.133c0 .7.567 1.267 1.267 1.267h21.467c.7 0 1.267-.567 1.267-1.267v-.133c0-.7-.567-1.267-1.267-1.267zM26.733 21.333H5.266c-.7 0-1.267.567-1.267 1.267v.133c0 .7.567 1.267 1.267 1.267h21.467c.7 0 1.267-.567 1.267-1.267V22.6c0-.7-.567-1.267-1.267-1.267zM26.733 8H5.266c-.7 0-1.267.567-1.267 1.267V9.4c0 .7.567 1.267 1.267 1.267h21.467c.7 0 1.267-.567 1.267-1.267v-.133C28 8.567 27.433 8 26.733 8z"/></symbol>
<symbol id="icon-more" viewBox="0 0 32 32"><path d="M10.586 3.272a2 2 0 0 0 0 2.828l9.9 9.9-9.9 9.9a1.998 1.998 0 0 0 .025 2.804 2.001 2.001 0 0 0 2.804.025l11.314-11.314a2 2 0 0 0 0-2.828L13.415 3.273a2 2 0 0 0-2.828 0z"/></symbol>
<symbol id="icon-arrow" viewBox="0 0 82 32"><path d="M81.414 17.414a2 2 0 0 0 0-2.828L68.686 1.858a2 2 0 1 0-2.828 2.828L77.172 16 65.858 27.314a2 2 0 1 0 2.828 2.828l12.728-12.728zM0 18h80v-4H0v4z"/></symbol>
<symbol id="icon-facebook" viewBox="0 0 32 32"><path fill="var(--color2, #f8d24e)" d="M16 32c8.837 0 16-7.163 16-16S24.837 0 16 0 0 7.163 0 16s7.163 16 16 16z"/><path d="M20.446 15.982h-2.61v9.619h-3.955v-9.619H12v-3.38h1.881v-2.187c0-1.564.739-4.014 3.99-4.014l2.929.012v3.281h-2.125c-.349 0-.839.175-.839.921v1.989h2.955l-.346 3.377z"/></symbol>
<symbol id="icon-github" viewBox="0 0 32 32"><path fill="var(--color2, #f8d24e)" d="M32 16c0 8.837-7.163 16-16 16S0 24.837 0 16 7.163 0 16 0s16 7.163 16 16z"/><path d="M16 6.588c-5.169 0-9.412 4.242-9.412 9.412 0 4.411 3.095 8.419 7.206 9.412v-3.114a2.307 2.307 0 0 1-1.197-.03c-.556-.164-1.008-.535-1.344-1.1-.214-.361-.593-.752-.988-.723l-.097-1.099c.855-.073 1.595.521 2.034 1.259.195.328.419.52.708.605.278.082.578.043.926-.08.088-.698.407-.959.648-1.326v-.001c-2.451-.366-3.428-1.666-3.816-2.693-.514-1.363-.238-3.066.671-4.142.018-.021.05-.076.037-.114-.417-1.258.091-2.299.11-2.41.481.142.559-.143 2.089.786l.264.159c.111.066.076.028.186.02A8.031 8.031 0 0 1 16 11.131a8.016 8.016 0 0 1 2.002.285l.086.009c-.007-.001.023-.005.075-.036 1.911-1.157 1.842-.779 2.355-.946.019.111.519 1.169.107 2.411-.056.171 1.657 1.739.708 4.256-.388 1.027-1.365 2.328-3.816 2.693v.001c.314.479.692.734.69 1.722v3.887c4.111-.993 7.206-5 7.206-9.412 0-5.169-4.242-9.412-9.412-9.412z"/></symbol>
<symbol id="icon-telegram" viewBox="0 0 32 32"><path fill="var(--color2, #f8d24e)" d="M32 16c0 8.837-7.163 16-16 16S0 24.837 0 16 7.163 0 16 0s16 7.163 16 16z"/><path d="m12.869 18.375-.318 4.169c.454 0 .651-.182.887-.401l2.13-1.9 4.415 3.017c.81.421 1.38.199 1.598-.695l2.898-12.672.001-.001c.257-1.117-.433-1.554-1.222-1.28L6.226 14.698c-1.162.421-1.145 1.026-.198 1.3l4.354 1.264 10.115-5.907c.476-.294.909-.131.553.163l-8.182 6.857z"/></symbol>
<symbol id="icon-instagram" viewBox="0 0 512 512"><path d="M256 46.1c68.4 0 76.5 0.3 103.4 1.5 25 1.1 38.5 5.3 47.5 8.8 11.9 4.6 20.5 10.2 29.4 19.1 9 9 14.5 17.5 19.2 29.4 3.5 9 7.7 22.6 8.8 47.5 1.2 27 1.5 35.1 1.5 103.4s-0.3 76.5-1.5 103.4c-1.1 25-5.3 38.5-8.8 47.5-4.6 11.9-10.2 20.5-19.1 29.4-9 9-17.5 14.5-29.4 19.2-9 3.5-22.6 7.7-47.5 8.8-27 1.2-35.1 1.5-103.4 1.5s-76.5-0.3-103.4-1.5c-25-1.1-38.5-5.3-47.5-8.8-11.9-4.6-20.5-10.2-29.4-19.1-9-9-14.5-17.5-19.2-29.4-3.5-9-7.7-22.6-8.8-47.5-1.2-27-1.5-35.1-1.5-103.4s0.3-76.5 1.5-103.4c1.1-25 5.3-38.5 8.8-47.5 4.6-11.9 10.2-20.5 19.1-29.4 9-9 17.5-14.5 29.4-19.2 9-3.5 22.6-7.7 47.5-8.8 26.9-1.2 35-1.5 103.4-1.5zM256 0c-69.5 0-78.2 0.3-105.5 1.5-27.2 1.2-45.9 5.6-62.1 11.9-16.9 6.6-31.2 15.3-45.4 29.6-14.3 14.2-23 28.5-29.6 45.3-6.3 16.3-10.7 34.9-11.9 62.1-1.2 27.4-1.5 36.1-1.5 105.6s0.3 78.2 1.5 105.5c1.2 27.2 5.6 45.9 11.9 62.1 6.6 16.9 15.3 31.2 29.6 45.4 14.2 14.2 28.5 23 45.3 29.5 16.3 6.3 34.9 10.7 62.1 11.9 27.3 1.2 36 1.5 105.5 1.5s78.2-0.3 105.5-1.5c27.2-1.2 45.9-5.6 62.1-11.9 16.8-6.5 31.1-15.3 45.3-29.5s23-28.5 29.5-45.3c6.3-16.3 10.7-34.9 11.9-62.1 1.2-27.3 1.5-36 1.5-105.5s-0.3-78.2-1.5-105.5c-1.2-27.2-5.6-45.9-11.9-62.1-6.3-17-15-31.3-29.3-45.5-14.2-14.2-28.5-23-45.3-29.5-16.3-6.3-34.9-10.7-62.1-11.9-27.4-1.3-36.1-1.6-105.6-1.6v0z"/><path d="M256 124.5c-72.6 0-131.5 58.9-131.5 131.5s58.9 131.5 131.5 131.5 131.5-58.9 131.5-131.5c0-72.6-58.9-131.5-131.5-131.5zM256 341.3c-47.1 0-85.3-38.2-85.3-85.3s38.2-85.3 85.3-85.3c47.1 0 85.3 38.2 85.3 85.3s-38.2 85.3-85.3 85.3z"/><path d="M423.4 119.3c0 16.955-13.745 30.7-30.7 30.7s-30.7-13.745-30.7-30.7c0-16.955 13.745-30.7 30.7-30.7s30.7 13.745 30.7 30.7z"/></symbol>
<symbol id="icon" viewBox="0 0 100 100"><path d="M44.4688 22.2812L44.4922 28.0078H45.2344H45.9766L46.0156 24.1094L46.0547 20.2187L46.6719 23.9531C47.0156 26.0156 47.3203 27.7734 47.3516 27.875C47.4141 28.0469 47.4453 28.0547 48.2188 28.0312L49.0156 28.0078L49.0781 27.7344C49.1094 27.5859 49.3672 25.875 49.6484 23.9453C49.9375 22.0078 50.2031 20.3594 50.2344 20.2734C50.2734 20.1875 50.3047 21.8594 50.3047 24.0703L50.3125 28.0312L51.1328 28.0391L51.9531 28.0547V22.3047V16.5625H50.7422C49.8359 16.5625 49.5156 16.5859 49.4922 16.6562C49.4688 16.7109 49.2109 18.4062 48.9062 20.4297C48.4062 23.7734 48.2344 24.7812 48.2109 24.4531C48.1875 24.1484 46.9531 16.7031 46.9141 16.6406C46.8828 16.5937 46.3359 16.5625 45.6562 16.5625H44.4531L44.4688 22.2812Z" /><path d="M54.6641 16.6172C54.6406 16.6563 54.461 17.6953 54.2656 18.9453C54.0703 20.1875 53.6641 22.7188 53.3672 24.5703C53.0703 26.4141 52.8438 27.9531 52.8672 27.9844C52.8828 28.0235 53.2344 28.0469 53.6328 28.0469C54.4766 28.0469 54.4766 28.0469 54.5625 27.3438C54.5938 27.1094 54.6563 26.6953 54.6953 26.4219L54.7813 25.9297L55.8828 25.9531L56.9844 25.9766L57.1172 26.8985C57.1875 27.3985 57.2735 27.8672 57.2969 27.9297C57.3516 28.086 58.9688 28.1016 59.0313 27.9453C59.0469 27.8906 58.6641 25.3203 58.1641 22.2344C57.6719 19.1406 57.2656 16.6016 57.2656 16.5859C57.2656 16.5313 54.6953 16.5625 54.6641 16.6172ZM56.0469 19.8203C56.125 20.375 56.3047 21.5938 56.4531 22.5391C56.6016 23.4844 56.7188 24.2813 56.7188 24.3125C56.7188 24.3516 56.3281 24.375 55.8594 24.375H54.9922L55.0391 24.1172C55.1016 23.7656 55.4297 21.5391 55.6406 20.0547C55.7422 19.3828 55.836 18.8281 55.8594 18.8281C55.8828 18.8281 55.9688 19.2734 56.0469 19.8203Z" /><path d="M50.3125 30.1484C49.5859 30.3437 49.1719 30.5859 48.6719 31.0859C47.875 31.8906 47.5156 32.8906 47.6562 33.8828C47.7812 34.7891 47.9219 35.1172 48.4375 35.7656C48.6094 35.9922 48.7344 36.1719 48.7109 36.1719C48.6875 36.1719 47.9531 35.8516 47.0859 35.4609C46.2188 35.0625 45.2422 34.6328 44.9219 34.4922C44.6016 34.3516 43.7422 33.9687 43.0156 33.6406C40.9375 32.7031 40.9375 32.7031 39.8203 35.1953C37.8359 39.6094 37.8516 39.5547 38.0781 39.9922C38.1953 40.2109 38.2188 40.2187 41.1719 41.5703C42.4922 42.1719 49.4219 45.3047 50.2344 45.6641C50.9688 45.9922 54.1328 47.4219 57.5781 48.9844C58.5469 49.4219 60.0547 50.1016 60.9297 50.4922L62.5312 51.2109L49.9531 51.25C36.6797 51.2891 37.1484 51.2734 36.9531 51.6406C36.8438 51.8437 36.8438 69.4062 36.9531 69.6172C37.1719 70.0234 36.3984 70 51.3047 70C62.1953 70 65.1562 69.9766 65.3125 69.8984C65.4219 69.8437 65.5703 69.6797 65.6406 69.5312C65.7734 69.2734 65.7812 68.7031 65.7812 60.9141V52.5781L66.0625 52.6953C66.875 53.0312 67.0391 52.8594 68.0938 50.5078C68.5547 49.4766 69.1094 48.2422 69.3203 47.7734C69.8438 46.6016 69.9297 46.3516 69.875 46.1406C69.7578 45.6641 69.5156 45.5234 66.0312 43.9687L62.6484 42.4609L63.2578 42.3594C65.1016 42.0547 66.4062 40.5937 66.4062 38.8281C66.4062 37.6328 65.7109 36.4453 64.6484 35.8281C64.0156 35.4531 63.3672 35.3672 61.5234 35.4141C60.0547 35.4531 59.7812 35.4844 58.9062 35.6953C58.3672 35.8203 57.7266 36 57.4844 36.0859C57.2344 36.1719 57.0234 36.2187 57.0078 36.1875C56.9844 36.1562 56.9297 35.9922 56.875 35.8203C56.8203 35.6484 56.5547 35.0703 56.2734 34.5312C55.3516 32.7656 53.75 30.8672 52.7812 30.3906C51.9531 29.9844 51.1875 29.9062 50.3125 30.1484ZM51.9219 31.8359C52.9141 32.25 55.2812 35.6328 55.4453 36.875L55.4922 37.2109L55.1875 37.1562C54.7266 37.0703 53.6328 36.6953 52.8516 36.3437C50.1719 35.1562 49.9922 35.0625 49.7188 34.6875C49.3906 34.2344 49.2031 33.5781 49.2891 33.2031C49.4922 32.3672 49.9141 31.9062 50.6641 31.7109C50.9609 31.6328 51.5859 31.6953 51.9219 31.8359ZM43.3281 35.6172C44.1875 36 45.6406 36.6484 46.5625 37.0703C47.4844 37.4844 48.9297 38.1406 49.7656 38.5156C51.7344 39.3984 51.7188 39.3906 51.7188 39.4531C51.7188 39.4766 51.4141 40.1719 51.0469 40.9844C50.6797 41.7969 50.2734 42.7187 50.1328 43.0234C50 43.3359 49.8516 43.5937 49.7969 43.5937C49.75 43.5937 48.8125 43.1953 47.7266 42.7031C44.3203 41.1797 41.2422 39.7891 40.5312 39.4687L39.8516 39.1484L40.2656 38.2266C41.3672 35.7578 41.75 34.9219 41.7656 34.9219C41.7734 34.9219 42.4766 35.2344 43.3281 35.6172ZM63.4688 37.0469C63.8906 37.1484 64.4141 37.7109 64.5703 38.2266C64.7188 38.7266 64.7188 38.8594 64.5625 39.3828C64.3906 39.9531 63.9375 40.4062 63.3672 40.5781C62.6641 40.7891 62.7109 40.7969 60.3906 39.7891C58.7578 39.0781 57.7344 38.5078 57.3594 38.1094L57.1797 37.9141L57.3594 37.7969C57.8984 37.4453 59.8047 37.0625 61.6406 36.9297C62.1328 36.8906 63.1016 36.9531 63.4688 37.0469ZM56.1719 39.2578C56.3906 39.4687 56.5391 39.6562 56.5 39.6719C56.4609 39.6797 56.0234 39.5078 55.5312 39.2734L54.625 38.8594L55.2031 38.8672H55.7812L56.1719 39.2578ZM54.4922 40.6016C54.9688 40.8125 55.5859 41.1094 55.875 41.2578L56.3906 41.5234L56.25 41.8359C56.1719 42.0078 55.8438 42.7109 55.5234 43.3984C55.2031 44.0859 54.8438 44.8672 54.7266 45.1406C54.6094 45.4141 54.4688 45.6172 54.4219 45.5937C54.125 45.4687 51.5156 44.2734 51.4922 44.25C51.4766 44.2344 51.8438 43.4062 52.3047 42.4062C52.7656 41.4062 53.1797 40.4844 53.2266 40.3672C53.3203 40.0859 53.3594 40.0937 54.4922 40.6016ZM58.9062 42.5625C59.2266 42.7109 59.8281 42.9766 60.2344 43.1562C62.8359 44.3125 67.8594 46.5937 67.9219 46.6484C67.9609 46.6797 67.7109 47.3281 67.3438 48.1406C66.9922 48.9297 66.5781 49.8594 66.4219 50.2109C66.2578 50.5703 66.0938 50.8594 66.0391 50.8594C65.9922 50.8594 65.6406 50.7187 65.2578 50.5391C64.8828 50.3594 64.3047 50.1016 63.9844 49.9609C62.6016 49.3672 56.2031 46.4687 56.1641 46.4219C56.1328 46.3906 56.2969 45.9609 56.5234 45.4687C56.7422 44.9766 57.1719 44.0312 57.4609 43.375C58.0703 42.0234 57.9297 42.1094 58.9062 42.5625ZM47.8906 60.625V68.3594H43.2031H38.5156V60.625V52.8906H43.2031H47.8906V60.625ZM64.0625 60.625V68.3594H59.375H54.6875V60.625V52.8906H59.375H64.0625V60.625ZM52.9688 60.625V68.2812H51.2891H49.6094V60.625V52.9687H51.2891H52.9688V60.625Z" /><path d="M32.3672 30.4688C31.2578 30.6953 30.3594 31.6953 30.1406 32.9531C30.0625 33.4219 30.0703 33.5625 30.1875 34.0078C30.4844 35.1016 31.7734 36.8906 33.3984 38.4766C34.0547 39.1172 34.2109 39.2188 34.5547 39.2188C34.8516 39.2188 34.9141 39.1719 35.6094 38.4531C37.0859 36.9297 38.1328 35.5703 38.625 34.5312C38.8281 34.0859 38.8594 33.9375 38.8672 33.3203C38.8672 32.6875 38.8438 32.5625 38.6172 32.0938C37.9219 30.6172 36.2891 30.0234 34.8594 30.7188L34.5156 30.8828L34.1875 30.7109C33.8438 30.5469 33.1641 30.3828 32.8594 30.3984C32.7734 30.4062 32.5469 30.4375 32.3672 30.4688ZM33.4375 32.3516C33.5859 32.4453 33.7578 32.5938 33.8203 32.6719C33.875 32.7578 34.0391 32.875 34.1797 32.9375C34.5234 33.0781 34.8516 32.9766 35.2734 32.5859C35.6563 32.2344 35.8906 32.1484 36.2813 32.2188C36.9453 32.3438 37.3828 33.1016 37.1563 33.7422C37.0547 34.0391 36.3203 35.1797 35.9766 35.5859C35.8672 35.7109 35.5078 36.1406 35.1719 36.5391C34.8438 36.9375 34.5469 37.2578 34.5156 37.2578C34.4375 37.2656 33.2891 35.9688 32.7656 35.2734C32.1406 34.4531 31.7969 33.8047 31.7969 33.4375C31.7969 33.0391 32.0938 32.5078 32.4219 32.3359C32.7734 32.1406 33.1016 32.1484 33.4375 32.3516Z" /><path d="M32.8828 42.2188C31.6328 42.6953 30.8438 43.9453 30.961 45.2266C31.0547 46.3125 32.1172 47.9453 33.9844 49.875C35.2735 51.2031 35.375 51.2109 36.5547 50.0078C37.9531 48.5859 39.0703 47.0937 39.4844 46.1094C39.75 45.4766 39.8047 45.0547 39.6875 44.4844C39.4922 43.5391 38.9922 42.8438 38.1875 42.4219C37.7891 42.2109 37.586 42.1562 37.1016 42.125C36.5 42.0938 35.8672 42.2266 35.5156 42.4688C35.3906 42.5547 35.3125 42.5391 34.9688 42.3672C34.6406 42.1953 34.4453 42.1562 33.8672 42.1328C33.4063 42.1172 33.0703 42.1484 32.8828 42.2188ZM34.1953 43.8047C34.3438 43.875 34.5391 44.0312 34.6328 44.1484C34.8203 44.4141 35.211 44.5625 35.5078 44.4844C35.6172 44.4609 35.8906 44.2812 36.1094 44.0937C36.625 43.6562 36.9453 43.5859 37.3985 43.8281C37.9219 44.1016 38.1797 44.7891 37.9688 45.3437C37.7891 45.8281 36.6875 47.3125 35.7656 48.3125L35.3438 48.7734L34.9063 48.3125C33.6953 47.0312 32.9453 46 32.7031 45.2812C32.5078 44.7187 32.7735 44.0625 33.2969 43.8047C33.625 43.6406 33.8516 43.6406 34.1953 43.8047Z" /><path d="M39.375 73.0391C38.5312 73.3125 38.0469 73.9453 37.8828 74.9922C37.7734 75.7188 37.8828 76.4375 38.2109 77.1094C38.4062 77.5078 38.7109 77.8672 39.5859 78.7578C40.2891 79.4844 40.7578 80.0313 40.8594 80.2422C41.0469 80.6563 41.0625 81.3984 40.8984 81.7188C40.6484 82.2031 39.7422 82.2031 39.4922 81.7188C39.4219 81.5781 39.375 81.2734 39.375 80.8984V80.3125H38.5859H37.7891L37.8281 81.1328C37.8594 81.8438 37.8984 82.0078 38.0938 82.3984C38.5156 83.2266 39.3516 83.6484 40.4219 83.5781C41.8359 83.4844 42.5625 82.7109 42.6406 81.2109C42.7109 79.8594 42.4375 79.3125 40.9297 77.7734C40.3438 77.1719 39.7891 76.5391 39.7031 76.3672C39.375 75.7188 39.4141 74.8281 39.7891 74.5703C39.8828 74.5078 40.1172 74.4531 40.3125 74.4531C40.8359 74.4531 41.0391 74.6875 41.0781 75.3516L41.1094 75.8594H41.8984H42.6797L42.6328 75.2422C42.5703 74.2422 42.1719 73.5625 41.4609 73.1875C41.1953 73.0469 40.9766 73.0156 40.3516 72.9922C39.9219 72.9844 39.4844 73 39.375 73.0391Z" /><path d="M50.3125 73.0625C49.7422 73.2188 49.2344 73.7188 48.9688 74.375C48.8047 74.7891 48.7969 74.9141 48.7656 77.8672C48.7344 81.1719 48.7813 81.7891 49.0938 82.4062C49.3359 82.875 49.625 83.1484 50.1172 83.375C50.4453 83.5234 50.6328 83.5547 51.2891 83.5547C52.2266 83.5469 52.6406 83.3828 53.125 82.8359C53.7031 82.1719 53.7109 82.125 53.7109 78.2031V74.7266L53.4688 74.2109C53.2031 73.6484 52.8047 73.2734 52.2656 73.0859C51.8906 72.9531 50.7422 72.9375 50.3125 73.0625ZM51.8359 74.6406C51.9375 74.7422 52.0391 74.9453 52.0703 75.0859C52.0938 75.2344 52.1094 76.7656 52.0938 78.5L52.0703 81.6562L51.8047 81.8906C51.5703 82.0938 51.5 82.125 51.1953 82.0859C50.7813 82.0391 50.5781 81.8672 50.4688 81.4922C50.3828 81.1875 50.3594 75.625 50.4375 75.1406C50.5156 74.6719 50.7734 74.4531 51.25 74.4531C51.5625 74.4531 51.6875 74.4922 51.8359 74.6406Z" /><path d="M43.125 73.7891V74.5312H43.9844H44.8438V78.9844V83.4375H45.6641H46.4844V78.9844V74.5312H47.3438H48.2031V73.7891V73.0469H45.6641H43.125V73.7891Z" /><path d="M54.8438 78.2422V83.4375H55.6641H56.4844V81.3281V79.2187H56.875C57.0938 79.2187 57.3906 79.2734 57.5469 79.3359C57.9922 79.5234 58.0703 79.8047 58.1016 81.4844C58.1172 82.2812 58.1484 83.0469 58.1719 83.1797L58.2109 83.4375H59.0391H59.8594L59.8047 83.2187C59.7734 83.1016 59.7188 82.2344 59.6953 81.2891C59.6484 79.9062 59.6094 79.5078 59.5 79.2422C59.3594 78.9141 58.9062 78.4375 58.7422 78.4375C58.6953 78.4375 58.8281 78.2734 59.0469 78.0625C59.6094 77.5312 59.7109 77.1328 59.6719 75.6328C59.6406 74.5703 59.625 74.4609 59.4297 74.0781C59.1797 73.5937 58.7109 73.2578 58.1172 73.1328C57.8984 73.0859 57.0781 73.0469 56.2891 73.0469H54.8438V78.2422ZM57.7734 74.7187L58.0078 74.9062L58.0312 75.9062C58.0469 76.4687 58.0234 77.0312 57.9766 77.1875C57.8672 77.5703 57.5547 77.7344 56.9609 77.7344H56.4844V76.1328V74.5312H57.0156C57.4531 74.5312 57.5781 74.5625 57.7734 74.7187Z" /><path d="M60.7812 78.2422V83.4375H63.0078H65.2344V82.6953V81.9531H63.8281H62.4219V80.4297V78.9062H63.5547H64.6875V78.1641V77.4219H63.5547H62.4219V75.9766V74.5312H63.8281H65.2344V73.7891V73.0469H63.0078H60.7812V78.2422Z" /></symbol>
<symbol id="icon-tiktok" viewBox="0 0 32 32">
<path d="M26.119 8.915c-1.332-0.285-2.537-0.988-3.442-2.006s-1.46-2.298-1.585-3.654v-0.588h-4.593v18.229c-0.003 0.807-0.258 1.593-0.731 2.247s-1.138 1.144-1.903 1.4c-0.765 0.256-1.592 0.267-2.363 0.029s-1.449-0.711-1.937-1.353c-0.496-0.653-0.771-1.447-0.786-2.267s0.233-1.623 0.706-2.293c0.473-0.67 1.147-1.172 1.925-1.433s1.618-0.268 2.4-0.019v-4.667c-1.743-0.241-3.517 0.069-5.076 0.886s-2.822 2.101-3.614 3.672-1.074 3.35-0.806 5.089c0.269 1.739 1.074 3.35 2.303 4.609 1.172 1.2 2.676 2.023 4.318 2.364s3.349 0.186 4.903-0.447c1.553-0.633 2.883-1.715 3.819-3.107s1.436-3.031 1.436-4.709v-9.315c1.856 1.327 4.082 2.039 6.364 2.035v-4.564c-0.449 0.001-0.898-0.046-1.337-0.139z"></path>
</symbol>
<symbol id="icon-call" viewBox="0 0 24 24">
<path d="M20.016 15.375q0.422 0 0.703 0.281t0.281 0.703v3.469q0 1.172-0.984 1.172-6.984 0-12-5.016t-5.016-12q0-0.984 1.172-0.984h3.469q0.422 0 0.703 0.281t0.281 0.703q0 1.828 0.563 3.516 0.188 0.609-0.234 1.031l-1.922 1.688q2.156 4.5 6.891 6.797l1.547-1.969q0.281-0.281 0.703-0.281 0.234 0 0.328 0.047 1.688 0.563 3.516 0.563z"></path>
</symbol>

</defs></svg>