<?xml version="1.0" standalone="no"?>
<!DOCTYPE svg PUBLIC "-//W3C//DTD SVG 20010904//EN"
 "http://www.w3.org/TR/2001/REC-SVG-20010904/DTD/svg10.dtd">
<svg version="1.0" xmlns="http://www.w3.org/2000/svg"
 viewBox="0 0 1280.000000 1280.000000"
 preserveAspectRatio="xMidYMid meet">

<g transform="translate(0.000000,1280.000000) scale(0.100000,-0.100000)"
fill="#000000" stroke="none">
<path d="M5692 9948 l3 -733 95 0 95 0 5 499 5 498 79 -478 c44 -264 83 -489
87 -502 8 -22 12 -23 111 -20 l102 3 8 35 c4 19 37 238 73 485 37 248 71 459
75 470 5 11 9 -203 9 -486 l1 -507 105 -1 105 -2 0 736 0 735 -155 0 c-116 0
-157 -3 -160 -12 -3 -7 -36 -224 -75 -483 -64 -428 -86 -557 -89 -515 -3 39
-161 992 -166 1000 -4 6 -74 10 -161 10 l-154 0 2 -732z"/>
<path d="M6997 10673 c-3 -5 -26 -138 -51 -298 -25 -159 -77 -483 -115 -720
-38 -236 -67 -433 -64 -437 2 -5 47 -8 98 -8 108 0 108 0 119 90 4 30 12 83
17 118 l11 63 141 -3 141 -3 17 -118 c9 -64 20 -124 23 -132 7 -20 214 -22
222 -2 2 7 -47 336 -111 731 -63 396 -115 721 -115 723 0 7 -329 3 -333 -4z
m177 -410 c10 -71 33 -227 52 -348 19 -121 34 -223 34 -227 0 -5 -50 -8 -110
-8 l-111 0 6 33 c8 45 50 330 77 520 13 86 25 157 28 157 3 0 14 -57 24 -127z"/>
<path d="M6440 8941 c-93 -25 -146 -56 -210 -120 -102 -103 -148 -231 -130
-358 16 -116 34 -158 100 -241 22 -29 38 -52 35 -52 -3 0 -97 41 -208 91 -111
51 -236 106 -277 124 -41 18 -151 67 -244 109 -266 120 -266 120 -409 -199
-254 -565 -252 -558 -223 -614 15 -28 18 -29 396 -202 169 -77 1056 -478 1160
-524 94 -42 499 -225 940 -425 124 -56 317 -143 429 -193 l205 -92 -1610 -5
c-1699 -5 -1639 -3 -1664 -50 -14 -26 -14 -2274 0 -2301 28 -52 -71 -49 1837
-49 1394 0 1773 3 1793 13 14 7 33 28 42 47 17 33 18 106 18 1103 l0 1067 36
-15 c104 -43 125 -21 260 280 59 132 130 290 157 350 67 150 78 182 71 209
-15 61 -46 79 -492 278 l-433 193 78 13 c236 39 403 226 403 452 0 153 -89
305 -225 384 -81 48 -164 59 -400 53 -188 -5 -223 -9 -335 -36 -69 -16 -151
-39 -182 -50 -32 -11 -59 -17 -61 -13 -3 4 -10 25 -17 47 -7 22 -41 96 -77
165 -118 226 -323 469 -447 530 -106 52 -204 62 -316 31z m206 -216 c127 -53
430 -486 451 -645 l6 -43 -39 7 c-59 11 -199 59 -299 104 -343 152 -366 164
-401 212 -42 58 -66 142 -55 190 26 107 80 166 176 191 38 10 118 2 161 -16z
m-1100 -484 c110 -49 296 -132 414 -186 118 -53 303 -137 410 -185 252 -113
250 -112 250 -120 0 -3 -39 -92 -86 -196 -47 -104 -99 -222 -117 -261 -17 -40
-36 -73 -43 -73 -6 0 -126 51 -265 114 -436 195 -830 373 -921 414 l-87 41 53
118 c141 316 190 423 192 423 1 0 91 -40 200 -89z m2578 -183 c54 -13 121 -85
141 -151 19 -64 19 -81 -1 -148 -22 -73 -80 -131 -153 -153 -90 -27 -84 -28
-381 101 -209 91 -340 164 -388 215 l-23 25 23 15 c69 45 313 94 548 111 63 5
187 -3 234 -15z m-934 -283 c28 -27 47 -51 42 -53 -5 -1 -61 21 -124 51 l-116
53 74 -1 74 0 50 -50z m-215 -172 c61 -27 140 -65 177 -84 l66 -34 -18 -40
c-10 -22 -52 -112 -93 -200 -41 -88 -87 -188 -102 -223 -15 -35 -33 -61 -39
-58 -38 16 -372 169 -375 172 -2 2 45 108 104 236 59 128 112 246 118 261 12
36 17 35 162 -30z m565 -251 c41 -19 118 -53 170 -76 333 -148 976 -440 984
-447 5 -4 -27 -87 -74 -191 -45 -101 -98 -220 -118 -265 -21 -46 -42 -83 -49
-83 -6 0 -51 18 -100 41 -48 23 -122 56 -163 74 -177 76 -996 447 -1001 453
-4 4 17 59 46 122 28 63 83 184 120 268 78 173 60 162 185 104z m-1410 -2312
l0 -990 -600 0 -600 0 0 990 0 990 600 0 600 0 0 -990z m2070 0 l0 -990 -600
0 -600 0 0 990 0 990 600 0 600 0 0 -990z m-1420 0 l0 -980 -215 0 -215 0 0
980 0 980 215 0 215 0 0 -980z"/>
<path d="M4143 8900 c-142 -29 -257 -157 -285 -318 -10 -60 -9 -78 6 -135 38
-140 203 -369 411 -572 84 -82 104 -95 148 -95 38 0 46 6 135 98 189 195 323
369 386 502 26 57 30 76 31 155 0 81 -3 97 -32 157 -89 189 -298 265 -481 176
l-44 -21 -42 22 c-44 21 -131 42 -170 40 -11 -1 -40 -5 -63 -9z m137 -241 c19
-12 41 -31 49 -41 7 -11 28 -26 46 -34 44 -18 86 -5 140 45 49 45 79 56 129
47 85 -16 141 -113 112 -195 -13 -38 -107 -184 -151 -236 -14 -16 -60 -71
-103 -122 -42 -51 -80 -92 -84 -92 -10 -1 -157 165 -224 254 -80 105 -124 188
-124 235 0 51 38 119 80 141 45 25 87 24 130 -2z"/>
<path d="M4209 7396 c-160 -61 -261 -221 -246 -385 12 -139 148 -348 387 -595
165 -170 178 -171 329 -17 179 182 322 373 375 499 34 81 41 135 26 208 -25
121 -89 210 -192 264 -51 27 -77 34 -139 38 -77 4 -158 -13 -203 -44 -16 -11
-26 -9 -70 13 -42 22 -67 27 -141 30 -59 2 -102 -2 -126 -11z m168 -203 c19
-9 44 -29 56 -44 24 -34 74 -53 112 -43 14 3 49 26 77 50 66 56 107 65 165 34
67 -35 100 -123 73 -194 -23 -62 -164 -252 -282 -380 l-54 -59 -56 59 c-155
164 -251 296 -282 388 -25 72 9 156 76 189 42 21 71 21 115 0z"/>
<path d="M5040 3451 c-108 -35 -170 -116 -191 -250 -14 -93 0 -185 42 -271 25
-51 64 -97 176 -211 90 -93 150 -163 163 -190 24 -53 26 -148 5 -189 -32 -62
-148 -62 -180 0 -9 18 -15 57 -15 105 l0 75 -101 0 -102 0 5 -105 c4 -91 9
-112 34 -162 54 -106 161 -160 298 -151 181 12 274 111 284 303 9 173 -26 243
-219 440 -75 77 -146 158 -157 180 -42 83 -37 197 11 230 12 8 42 15 67 15 67
0 93 -30 98 -115 l4 -65 101 0 100 0 -6 79 c-8 128 -59 215 -150 263 -34 18
-62 22 -142 25 -55 1 -111 -1 -125 -6z"/>
<path d="M6440 3448 c-73 -20 -138 -84 -172 -168 -21 -53 -22 -69 -26 -447 -4
-423 2 -502 42 -581 31 -60 68 -95 131 -124 42 -19 66 -23 150 -23 120 1 173
22 235 92 74 85 75 91 75 593 l0 445 -31 66 c-34 72 -85 120 -154 144 -48 17
-195 19 -250 3z m195 -202 c13 -13 26 -39 30 -57 3 -19 5 -215 3 -437 l-3
-404 -34 -30 c-30 -26 -39 -30 -78 -25 -53 6 -79 28 -93 76 -11 39 -14 751 -4
813 10 60 43 88 104 88 40 0 56 -5 75 -24z"/>
<path d="M5520 3355 l0 -95 110 0 110 0 0 -570 0 -570 105 0 105 0 0 570 0
570 110 0 110 0 0 95 0 95 -325 0 -325 0 0 -95z"/>
<path d="M7020 2785 l0 -665 105 0 105 0 0 270 0 270 50 0 c28 0 66 -7 86 -15
57 -24 67 -60 71 -275 2 -102 6 -200 9 -217 l5 -33 106 0 105 0 -7 28 c-4 15
-11 126 -14 247 -6 177 -11 228 -25 262 -18 42 -76 103 -97 103 -6 0 11 21 39
48 72 68 85 119 80 311 -4 136 -6 150 -31 199 -32 62 -92 105 -168 121 -28 6
-133 11 -234 11 l-185 0 0 -665z m375 451 l30 -24 3 -128 c2 -72 -1 -144 -7
-164 -14 -49 -54 -70 -130 -70 l-61 0 0 205 0 205 68 0 c56 0 72 -4 97 -24z"/>
<path d="M7780 2785 l0 -665 285 0 285 0 0 95 0 95 -180 0 -180 0 0 195 0 195
145 0 145 0 0 95 0 95 -145 0 -145 0 0 185 0 185 180 0 180 0 0 95 0 95 -285
0 -285 0 0 -665z"/>
</g>
</svg>
