<svg width="100" height="100" viewBox="0 0 100 100" fill="none" xmlns="http://www.w3.org/2000/svg">
<path d="M81.6208 27.8583C77.4597 26.9682 73.6917 24.7723 70.866 21.5906C68.0404 18.409 66.3049 14.4079 65.9125 10.1708V8.33331H51.5583V65.3C51.5494 67.822 50.7506 70.2778 49.274 72.3223C47.7974 74.3669 45.7173 75.8974 43.326 76.6987C40.9347 77.5001 38.3525 77.5321 35.9421 76.7902C33.5317 76.0483 31.4143 74.5698 29.8875 72.5625C28.337 70.5216 27.4769 68.0398 27.4319 65.4771C27.387 62.9145 28.1594 60.4041 29.6374 58.31C31.1153 56.2159 33.2218 54.6471 35.6515 53.8309C38.0811 53.0147 40.7076 52.9937 43.15 53.7708V39.1875C37.7036 38.4346 32.158 39.4029 27.289 41.9569C22.4199 44.511 18.471 48.5231 15.9945 53.432C13.518 58.3409 12.6378 63.9012 13.477 69.335C14.3162 74.7688 16.8329 79.8044 20.675 83.7375C24.339 87.4864 29.037 90.0586 34.1694 91.1255C39.3018 92.1924 44.6357 91.7057 49.4902 89.7276C54.3448 87.7495 58.4997 84.3696 61.4248 80.0195C64.3498 75.6693 65.9122 70.5462 65.9125 65.3041V36.1958C71.7135 40.343 78.669 42.5668 85.8 42.5541V28.2916C84.3956 28.2934 82.995 28.1481 81.6208 27.8583Z" fill="black"/>
</svg>
