<svg width="100" height="100" viewBox="0 0 100 100" fill="none" xmlns="http://www.w3.org/2000/svg">
<path d="M68.6328 39C76.2328 44.6 85.1328 45 88.6328 44.5V31C72.6328 31 68.6328 17.6667 68.6328 11H54.6328V70C53.8328 78 45.6328 80 41.6328 80C32.8328 80 30.6328 72 30.6328 68C31.0328 54.8 40.7995 54.5 45.6328 56C45.7995 51.3333 45.7328 41 44.1328 41C19.3328 40.553 15.1328 62.1471 16.1328 72.5C19.7328 90.9 36.2995 94.1667 44.1328 93.5C60.9328 93.9 67.4662 78 68.6328 70V39Z" fill="#CD5C5C" fill-opacity="0.8"/>
<path d="M45.0463 46.7809C45.2239 49.6525 45.2188 53.0138 45.1534 55.3448C42.6814 54.7098 39.2352 54.5561 36.2479 56.0397C32.9489 57.6781 30.3372 61.2472 30.1331 67.9849L30.1328 67.9924V68C30.1328 70.0717 30.6988 73.1743 32.4155 75.7754C34.1501 78.4035 37.0508 80.5 41.6328 80.5C43.698 80.5 46.8376 79.987 49.5791 78.4351C52.3393 76.8727 54.7109 74.244 55.1304 70.0498L55.1328 70.0249V70V11.5H68.1399C68.2349 14.8991 69.2994 19.726 72.2271 23.7922C75.2561 27.9992 80.2588 31.3592 88.1328 31.4957V44.0584C84.4661 44.4524 76.1032 43.8834 68.9294 38.5975L68.1328 38.0105V39V69.9635C67.5531 73.8962 65.6551 79.7629 61.8525 84.5906C58.0514 89.4165 52.3585 93.1957 44.1447 93.0001L44.1175 92.9995L44.0904 93.0018C40.2537 93.3283 34.2549 92.6896 28.7844 89.7109C23.3393 86.746 18.4015 81.4565 16.6282 72.4278C16.1404 67.3268 16.9368 59.4699 20.8854 52.9593C24.8141 46.4812 31.8887 41.2884 44.0928 41.4994C44.1136 41.518 44.1583 41.5677 44.2217 41.6873C44.3446 41.919 44.4662 42.2887 44.5773 42.7947C44.7975 43.7978 44.9488 45.2044 45.0463 46.7809ZM44.0798 41.4895C44.0798 41.4894 44.0808 41.4899 44.0826 41.4911C44.0807 41.4902 44.0798 41.4896 44.0798 41.4895Z" stroke="#CD5C5C" stroke-opacity="0.8"/>
<path d="M62.6328 32C70.2328 37.6 79.1328 38 82.6328 37.5V24C66.6328 24 62.6328 10.6667 62.6328 4H48.6328V63C47.8328 71 39.6328 73 35.6328 73C26.8328 73 24.6328 65 24.6328 61C25.0328 47.8 34.7995 47.5 39.6328 49C39.7995 44.3333 39.7328 34 38.1328 34C13.3328 33.553 9.13284 55.1471 10.1328 65.5C13.7328 83.9 30.2995 87.1667 38.1328 86.5C54.9328 86.9 61.4662 71 62.6328 63V32Z" fill="#00FFFF" fill-opacity="0.8" stroke="#00FFFF" stroke-opacity="0.8"/>
<path d="M81.6208 27.8583C77.4597 26.9682 73.6917 24.7723 70.866 21.5906C68.0404 18.409 66.3049 14.4079 65.9125 10.1708V8.33331H51.5583V65.3C51.5494 67.822 50.7506 70.2778 49.274 72.3223C47.7974 74.3669 45.7173 75.8974 43.326 76.6987C40.9347 77.5001 38.3525 77.5321 35.9421 76.7902C33.5317 76.0483 31.4143 74.5698 29.8875 72.5625C28.337 70.5216 27.4769 68.0398 27.4319 65.4771C27.387 62.9145 28.1594 60.4041 29.6374 58.31C31.1153 56.2159 33.2218 54.6471 35.6515 53.8309C38.0811 53.0147 40.7076 52.9937 43.15 53.7708V39.1875C37.7036 38.4346 32.158 39.4029 27.289 41.9569C22.4199 44.511 18.471 48.5231 15.9945 53.432C13.518 58.3409 12.6378 63.9012 13.477 69.335C14.3162 74.7688 16.8329 79.8044 20.675 83.7375C24.339 87.4864 29.037 90.0586 34.1694 91.1255C39.3018 92.1924 44.6357 91.7057 49.4902 89.7276C54.3448 87.7495 58.4997 84.3696 61.4248 80.0195C64.3498 75.6693 65.9122 70.5462 65.9125 65.3041V36.1958C71.7135 40.343 78.669 42.5668 85.8 42.5541V28.2916C84.3956 28.2934 82.995 28.1481 81.6208 27.8583Z" fill="black"/>
</svg>
